# xmcd CD database file generated by OrangeCD 5.1
#
# Track frame offsets:
#	150
#	15905
#	30017
#	47990
#	66020
#	80007
#	105312
#	121312
#	135115
#	150395
#	163310
#	181150
#	200795
#	218927
#	242892
#	256567
#	271970
#	286085
#	304485
#	318687
#
# Disc length: 4437 seconds
#
# Revision: 1
# Processed by: cddbd v1.5PL3 Copyright (c) Steve Scherf et al.
# Submitted via: OrangeCD 5.1
#
DISCID=0b115314
DTITLE=Sean Kenny - Line Dance Crazy - Disc 2
DYEAR=1999
DGENRE=Country
TTITLE0=Tall Tall Tries
TTITLE1=Running Out Of Road
TTITLE2=Forever I Will
TTITLE3=Rave On
TTITLE4=49 One Liners
TTITLE5=1999
TTITLE6=If I Never Stop Loving You
TTITLE7=Burning Love
TTITLE8=Pascagoula Run
TTITLE9=Let'er Rip
TTITLE10=King Of The Road
TTITLE11=Dance The Night Away
TTITLE12=Two Pina Coladas
TTITLE13=Walkin' On  Me
TTITLE14=Billy B Bad
TTITLE15=New Train
TTITLE16=Move It On Over
TTITLE17=One Night At A Time
TTITLE18=Country Down To My SOul
TTITLE19=I Know She Still Loves Me
EXTD=
EXTT0=
EXTT1=
EXTT2=
EXTT3=
EXTT4=
EXTT5=
EXTT6=
EXTT7=
EXTT8=
EXTT9=
EXTT10=
EXTT11=
EXTT12=
EXTT13=
EXTT14=
EXTT15=
EXTT16=
EXTT17=
EXTT18=
EXTT19=
PLAYORDER=
